<svg width="23" height="23" viewBox="0 0 23 23" fill="green" xmlns="http://www.w3.org/2000/svg">
<path fill-rule="evenodd" clip-rule="evenodd" d="M0.836888 1.18075C0.989704 0.728332 1.48523 0.483827 1.94368 0.634633L2.25275 0.736299C2.26815 0.741365 2.2835 0.746413 2.2988 0.751446C3.02957 0.991804 3.64712 1.19492 4.13273 1.41786C4.6489 1.65482 5.09678 1.94852 5.43639 2.41351C5.776 2.87849 5.91671 3.39067 5.98128 3.94885C6.04204 4.47397 6.04201 5.11635 6.04199 5.8765L6.04199 8.93736C6.04199 10.59 6.04384 11.7426 6.16232 12.6122C6.27742 13.457 6.48794 13.9044 6.81083 14.223C7.13372 14.5417 7.58706 14.7494 8.44313 14.863C9.32437 14.9799 10.4923 14.9818 12.167 14.9818H20.3337C20.8169 14.9818 21.2087 15.3684 21.2087 15.8453C21.2087 16.3221 20.8169 16.7087 20.3337 16.7087H12.103C10.5074 16.7088 9.22141 16.7088 8.20994 16.5746C7.15982 16.4353 6.27563 16.1372 5.57339 15.4442C4.87116 14.7512 4.56911 13.8786 4.42793 12.8423C4.29194 11.8442 4.29196 10.5751 4.29199 9.00054L4.29199 5.92441C4.29199 5.10353 4.29066 4.56037 4.24258 4.14474C4.19705 3.75117 4.11754 3.56133 4.01671 3.42328C3.91589 3.28524 3.75854 3.15077 3.39458 2.98369C3.01022 2.80723 2.48849 2.63424 1.69935 2.37465L1.39029 2.27298C0.931836 2.12218 0.684071 1.63317 0.836888 1.18075Z" fill="white"/>
<path d="M5.04004 4.90991C5.04618 5.20824 5.04617 5.53113 5.04616 5.87863L5.04615 8.93952C5.04615 10.5921 5.04812 11.7447 5.17366 12.6144C5.19198 12.7413 5.21258 12.8592 5.23552 12.9691H17.7436C18.9296 12.9691 19.5225 12.9691 19.9869 12.6839C20.4514 12.3987 20.6849 11.891 21.1521 10.8758L21.6819 9.72444C22.6825 7.54981 23.1828 6.46249 22.6332 5.6862C22.0837 4.90991 20.8136 4.90991 18.2734 4.90991H5.04004Z" fill="white"/>
<path d="M8.08325 18.7236C9.04975 18.7236 9.83325 19.4968 9.83325 20.4506C9.83325 21.4044 9.04975 22.1776 8.08325 22.1776C7.11675 22.1776 6.33325 21.4044 6.33325 20.4506C6.33325 19.4968 7.11675 18.7236 8.08325 18.7236Z" fill="white"/>
<path d="M20.3333 20.4507C20.3333 19.4969 19.5497 18.7237 18.5833 18.7237C17.6168 18.7237 16.8333 19.4969 16.8333 20.4507C16.8333 21.4045 17.6168 22.1777 18.5833 22.1777C19.5498 22.1777 20.3333 21.4045 20.3333 20.4507Z" fill="white"/>
</svg>
