<svg width="24" height="24" viewBox="0 0 24 24" fill="none" xmlns="http://www.w3.org/2000/svg">
<path fill-rule="evenodd" clip-rule="evenodd" d="M12 24C18.6274 24 24 18.6274 24 12C24 5.37258 18.6274 0 12 0C5.37258 0 0 5.37258 0 12C0 18.6274 5.37258 24 12 24ZM8.22698 8.34797C8.22698 10.4337 10.0178 12.1245 12.227 12.1245C14.4361 12.1245 16.227 10.4337 16.227 8.34797C16.227 6.26224 14.4361 4.57143 12.227 4.57143C10.0178 4.57143 8.22698 6.26224 8.22698 8.34797ZM7.69969 18.5464C9.18153 19.1345 10.6906 19.4286 12.227 19.4286C13.7633 19.4286 15.2724 19.1345 16.7543 18.5464C17.6537 18.1894 18.5037 17.7392 19.3044 17.1956C19.7594 16.8867 19.9868 16.7323 20.0991 16.4388C20.183 16.2196 20.1685 15.8615 20.0672 15.6497C19.9315 15.3663 19.6945 15.232 19.2205 14.9634C18.4558 14.5301 17.646 14.1773 16.7912 13.9051C15.3225 13.4374 13.8011 13.2035 12.227 13.2035C10.6528 13.2035 9.14138 13.4485 7.69266 13.9386C6.87172 14.2162 6.08378 14.5595 5.32885 14.9685C4.82125 15.2435 4.56745 15.381 4.42672 15.6665C4.32058 15.8818 4.3037 16.2401 4.38912 16.4644C4.50238 16.7619 4.73935 16.9208 5.21328 17.2386C5.99528 17.763 6.82409 18.1989 7.69969 18.5464Z" fill="#8271B6"/>
</svg>
