<svg width="22" height="26" viewBox="0 0 22 26" fill="none" xmlns="http://www.w3.org/2000/svg">
<path d="M14.5 20V20.875C14.5 21.8033 14.1313 22.6935 13.4749 23.3499C12.8185 24.0063 11.9283 24.375 11 24.375C10.0718 24.375 9.18153 24.0063 8.52515 23.3499C7.86878 22.6935 7.50003 21.8033 7.50003 20.875V20M20.3888 18.2188C18.9844 16.5 17.9929 15.625 17.9929 10.8863C17.9929 6.54688 15.777 5.00086 13.9532 4.25C13.7109 4.15047 13.4828 3.92187 13.409 3.67305C13.0891 2.58422 12.1922 1.625 11 1.625C9.80784 1.625 8.91042 2.58477 8.59378 3.67414C8.51995 3.9257 8.2919 4.15047 8.04964 4.25C6.22362 5.00195 4.00987 6.5425 4.00987 10.8863C4.00714 15.625 3.01565 16.5 1.61128 18.2188C1.0294 18.9309 1.53909 20 2.55682 20H19.4487C20.461 20 20.9674 18.9276 20.3888 18.2188Z" stroke="white" stroke-width="2" stroke-linecap="round" stroke-linejoin="round"/>
</svg>
