<svg width="25" height="22" viewBox="0 0 25 22" fill="none" xmlns="http://www.w3.org/2000/svg">
<path d="M14.1275 0.803759C8.28023 0.645124 3.48986 5.27955 3.48986 11.0018H1.43357C0.916623 11.0018 0.663894 11.6136 1.0315 11.9649L4.23656 15.1376C4.46632 15.3642 4.82244 15.3642 5.05219 15.1376L8.25725 11.9649C8.33664 11.885 8.39027 11.7838 8.4114 11.6739C8.43253 11.564 8.4202 11.4504 8.37597 11.3474C8.33175 11.2444 8.2576 11.1566 8.16288 11.0951C8.06816 11.0336 7.9571 11.0011 7.8437 11.0018H5.7874C5.7874 6.58263 9.44049 3.01333 13.9437 3.06998C18.2171 3.12664 21.8127 6.67328 21.8702 10.8885C21.9276 15.3189 18.309 18.9335 13.8288 18.9335C11.9793 18.9335 10.2676 18.3103 8.91205 17.2565C8.69202 17.0856 8.41596 17.0003 8.13636 17.017C7.85677 17.0338 7.59317 17.1513 7.39568 17.3472C6.91319 17.8231 6.94766 18.6276 7.48758 19.0355C9.29253 20.4432 11.5278 21.2061 13.8288 21.1998C19.6301 21.1998 24.3285 16.4747 24.1677 10.7072C24.0184 5.39286 19.5152 0.951064 14.1275 0.803759ZM13.5416 6.46932C13.0706 6.46932 12.68 6.85457 12.68 7.31915V11.489C12.68 11.8856 12.8983 12.2595 13.2429 12.4635L16.8271 14.5597C17.2406 14.7977 17.7691 14.6617 18.0103 14.2651C18.2515 13.8572 18.1137 13.336 17.7116 13.098L14.4032 11.1604V7.30782C14.4032 6.85457 14.0126 6.46932 13.5416 6.46932Z" fill="white"/>
</svg>
