<svg width="24" height="24" viewBox="0 0 24 24" fill="none" xmlns="http://www.w3.org/2000/svg">
<path d="M1.82568 10.2917H3.14452C3.51819 10.2917 3.83164 10.4217 4.08485 10.6817C4.33807 10.9417 4.46424 11.2631 4.46336 11.6458C4.46248 12.0286 4.33587 12.3505 4.08354 12.6114C3.8312 12.8723 3.51819 13.0018 3.14452 13H1.82568C1.45201 13 1.139 12.87 0.886667 12.61C0.634329 12.35 0.50772 12.0286 0.50684 11.6458C0.505961 11.2631 0.63257 10.9417 0.886667 10.6817C1.14076 10.4217 1.45377 10.2917 1.82568 10.2917ZM4.06771 17.6042L4.9909 16.6563C5.25467 16.3854 5.5624 16.2559 5.91409 16.2676C6.26578 16.2793 6.57351 16.4089 6.83728 16.6563C7.10104 16.9271 7.23864 17.2489 7.25007 17.6218C7.2615 17.9946 7.13489 18.316 6.87025 18.5859L5.94706 19.5339C5.68329 19.8047 5.37029 19.9347 5.00804 19.9239C4.6458 19.913 4.33236 19.7717 4.06771 19.5C3.82592 19.2292 3.69931 18.9132 3.68788 18.5521C3.67645 18.191 3.80306 17.875 4.06771 17.6042ZM4.9909 6.63542L4.06771 5.6875C3.80394 5.41667 3.67733 5.1007 3.68788 4.73959C3.69843 4.37848 3.82504 4.0625 4.06771 3.79167C4.33148 3.52084 4.64492 3.38 5.00804 3.36917C5.37116 3.35834 5.68417 3.48789 5.94706 3.75782L6.87025 4.70573C7.13401 4.97657 7.26062 5.29841 7.25007 5.67125C7.23952 6.0441 7.10192 6.36549 6.83728 6.63542C6.57351 6.88369 6.26578 7.01368 5.91409 7.02542C5.5624 7.03716 5.25467 6.90716 4.9909 6.63542ZM20.6851 22.8854L15.3438 17.401L14.3547 20.4479C14.3107 20.6059 14.2285 20.7246 14.108 20.8041C13.9876 20.8835 13.861 20.9228 13.7282 20.9219C13.5955 20.921 13.4688 20.8758 13.3484 20.7865C13.2279 20.6971 13.1457 20.573 13.1018 20.4141L10.2663 10.7318C10.2223 10.5512 10.228 10.3707 10.2834 10.1901C10.3388 10.0096 10.421 9.86285 10.53 9.75C10.6391 9.63716 10.7819 9.55275 10.9587 9.49678C11.1354 9.4408 11.3112 9.43493 11.4862 9.47917L20.9818 12.3906C21.1357 12.4358 21.2513 12.5206 21.3287 12.6452C21.4061 12.7698 21.4443 12.8993 21.4434 13.0339C21.4426 13.1684 21.4096 13.2984 21.3445 13.4239C21.2795 13.5493 21.1696 13.6338 21.0148 13.6771L18.0474 14.7604L23.3228 20.1771C23.5865 20.4479 23.7184 20.7639 23.7184 21.125C23.7184 21.4861 23.5865 21.8021 23.3228 22.0729L22.5315 22.8854C22.2677 23.1563 21.96 23.2917 21.6083 23.2917C21.2566 23.2917 20.9489 23.1563 20.6851 22.8854ZM11.0576 3.52084V2.16667C11.0576 1.78299 11.1842 1.4616 11.4374 1.2025C11.6906 0.943408 12.0036 0.813407 12.3764 0.812505C12.7492 0.811602 13.0626 0.941602 13.3167 1.2025C13.5708 1.46341 13.697 1.7848 13.6952 2.16667V3.52084C13.6952 3.90452 13.5686 4.22636 13.3154 4.48636C13.0622 4.74636 12.7492 4.87591 12.3764 4.875C12.0036 4.8741 11.6906 4.7441 11.4374 4.485C11.1842 4.22591 11.0576 3.90452 11.0576 3.52084ZM17.8826 4.70573L18.8387 3.72396C19.0805 3.4757 19.383 3.3457 19.7461 3.33396C20.1092 3.32223 20.4222 3.45223 20.6851 3.72396C20.9269 3.97223 21.0535 4.28278 21.0649 4.65563C21.0764 5.02848 20.9607 5.34987 20.7181 5.6198L19.7619 6.63542C19.5201 6.90625 19.2177 7.03625 18.8545 7.02542C18.4914 7.01459 18.1784 6.88459 17.9155 6.63542C17.6518 6.36459 17.5146 6.0432 17.5041 5.67125C17.4935 5.29931 17.6197 4.97747 17.8826 4.70573Z" fill="white"/>
</svg>
