<svg width="24" height="24" viewBox="0 0 24 24" fill="none" xmlns="http://www.w3.org/2000/svg">
<path fill-rule="evenodd" clip-rule="evenodd" d="M1.5621 1.40589C0 2.81177 0 5.07452 0 9.6V14.4C0 18.9255 0 21.1882 1.5621 22.5941C3.12419 24 5.63835 24 10.6667 24H13.3333C18.3616 24 20.8758 24 22.4379 22.5941C24 21.1882 24 18.9255 24 14.4V9.6C24 5.07452 24 2.81177 22.4379 1.40589C20.8758 0 18.3616 0 13.3333 0H10.6667C5.63835 0 3.12419 0 1.5621 1.40589ZM5.66667 7.2C5.66667 6.70294 6.11438 6.3 6.66667 6.3H17.3333C17.8856 6.3 18.3333 6.70294 18.3333 7.2C18.3333 7.69706 17.8856 8.1 17.3333 8.1H6.66667C6.11438 8.1 5.66667 7.69706 5.66667 7.2ZM5.66667 12C5.66667 11.5029 6.11438 11.1 6.66667 11.1H17.3333C17.8856 11.1 18.3333 11.5029 18.3333 12C18.3333 12.4971 17.8856 12.9 17.3333 12.9H6.66667C6.11438 12.9 5.66667 12.4971 5.66667 12ZM6.66667 15.9C6.11438 15.9 5.66667 16.3029 5.66667 16.8C5.66667 17.2971 6.11438 17.7 6.66667 17.7H11.52C12.0723 17.7 12.48 17.2971 12.48 16.8C12.48 16.3029 12.0723 15.9 11.52 15.9H6.66667Z" fill="#AF90DF"/>
</svg>
