<svg width="24" height="24" viewBox="0 0 24 24" fill="none" xmlns="http://www.w3.org/2000/svg">
<path d="M19.4286 2.37191C19.4286 1.06194 20.4519 0 21.7143 0C22.9767 0 24 1.06194 24 2.37191V20.1612C24 21.4712 22.9767 22.5331 21.7143 22.5331C20.4519 22.5331 19.4286 21.4712 19.4286 20.1612V2.37191Z" fill="#AF90DF"/>
<path d="M18.2857 19.6324V2.96489C18.2857 2.96489 15.4286 5.92977 9.14286 5.92977H5.14143C2.3011 5.92977 0 8.31914 0 11.2666C0 14.214 2.30109 16.6034 5.14141 16.6034L9.14286 16.6034C15.4286 16.6034 18.2857 19.6324 18.2857 19.6324Z" fill="#AF90DF"/>
<path d="M6.81749 22.6299L4.90876 18.3823H9.95278L10.9606 20.6251C11.4941 21.8123 10.9991 23.2236 9.85503 23.7772C8.71094 24.3308 7.35099 23.8172 6.81749 22.6299Z" fill="#AF90DF"/>
</svg>
